<svg width="128" height="128" viewBox="0 0 128 128" fill="none" xmlns="http://www.w3.org/2000/svg">
<g clip-path="url(#clip0_0_2)">
<rect x="2" y="2" width="124" height="124" rx="62" fill="#ABFE58" stroke="#333333" stroke-width="4"/>
<mask id="mask0_0_2" style="mask-type:alpha" maskUnits="userSpaceOnUse" x="0" y="0" width="128" height="128">
<rect x="2" y="2" width="124" height="124" rx="62" fill="white" stroke="white" stroke-width="4"/>
</mask>
<g mask="url(#mask0_0_2)">
<rect x="22" y="70" width="86" height="46" rx="22" fill="white"/>
<path fill-rule="evenodd" clip-rule="evenodd" d="M32.9678 267.672C20.7889 281.242 -1.17506 306.045 60.4753 300.617C116.204 295.731 116.666 293.936 115.07 307.548C111.879 334.355 15.9594 329.97 3.36052 307.13C-7.68447 287.13 10.4579 273.351 20.5789 263.413C20.5789 263.413 -22.2991 241.533 -10.3302 197.857C10.6679 121.32 13.3556 36.1402 28.9362 45.7438C41.0311 53.1762 78.1977 65.4522 97.3059 46.9547C104.759 39.7081 116.567 84.6318 108.778 132.613C104.252 160.495 123.543 184.232 126.325 207.92C134.053 273.643 35.4036 269.133 32.9678 267.672ZM61.5746 81.4043C67.1239 89.2986 64.8513 100.531 56.5539 106.412C48.2036 112.293 36.8937 110.65 31.3445 102.756C25.7953 94.8617 28.0678 83.6295 36.3652 77.7485C44.7155 71.8676 56.0254 73.51 61.5746 81.4043ZM43.8312 84.0285C45.2225 86.9223 44.7587 91.0345 42.8005 93.0906C40.8424 95.1467 38.0597 94.4613 36.6683 91.5675C35.277 88.6737 35.7408 84.5615 37.699 82.5054C39.7087 80.4493 42.4398 81.1347 43.8312 84.0285ZM100.211 81.4043C105.76 89.2986 103.488 100.531 95.1904 106.412C86.8401 112.293 75.5302 110.65 69.981 102.756C64.4317 94.8617 66.7043 83.6295 75.0017 77.7485C83.2991 71.8676 94.6619 73.51 100.211 81.4043ZM83.7275 82.8302C85.1189 85.724 84.6551 89.8362 82.6969 91.8923C80.7387 93.9484 77.956 93.2631 76.5647 90.3693C75.1733 87.4755 75.6371 83.3633 77.5953 81.3072C79.605 79.175 82.3362 79.8603 83.7275 82.8302Z" fill="#333333"/>
</g>
</g>
<defs>
<clipPath id="clip0_0_2">
<rect width="128" height="128" fill="white"/>
</clipPath>
</defs>
</svg>
