<?xml version="1.0" encoding="utf-8"?>
<!-- Generator: Adobe Illustrator 19.2.0, SVG Export Plug-In . SVG Version: 6.00 Build 0)  -->
<svg version="1.1" id="Layer_1" xmlns="http://www.w3.org/2000/svg" xmlns:xlink="http://www.w3.org/1999/xlink" x="0px" y="0px"
	 viewBox="0 0 331.5 673" style="enable-background:new 0 0 331.5 673;" xml:space="preserve">
<style type="text/css">
	.st0{fill-rule:evenodd;clip-rule:evenodd;}
	.st1{fill-rule:evenodd;clip-rule:evenodd;fill:#FFFFFF;}
</style>
<path class="st0" d="M330.4,390.2c18.4,157.4-216.5,146.6-222.3,143.1c-29,32.5-81.3,91.9,65.5,78.9c132.7-11.7,133.8-16,130,16.6
	c-7.6,64.2-236,53.7-266-1c-26.3-47.9,16.9-80.9,41-104.7c0,0-102.1-52.4-73.6-157C55,182.8,61.4-21.2,98.5,1.8
	C127.3,19.6,215.8,49,261.3,4.7C288.4-21.8,311.2,225.8,330.4,390.2L330.4,390.2z"/>
<path class="st1" d="M167.7,82.3c10.5,14.9,6.2,36.1-9.5,47.2c-15.8,11.1-37.2,8-47.7-6.9c-10.5-14.9-6.2-36.1,9.5-47.2
	C135.8,64.3,157.2,67.4,167.7,82.3L167.7,82.3z"/>
<path class="st0" d="M126.2,99.7c2.7,3.8,1.8,9.2-2,11.9c-3.8,2.7-9.2,1.8-11.9-2c-2.7-3.8-1.8-9.2,2-11.9
	C118.2,95,123.5,95.9,126.2,99.7L126.2,99.7z"/>
<path class="st1" d="M240.5,82.3c10.5,14.9,6.2,36.1-9.5,47.2c-15.8,11.1-37.2,8-47.7-6.9c-10.5-14.9-6.2-36.1,9.5-47.2
	S230,67.4,240.5,82.3L240.5,82.3z"/>
<path class="st0" d="M203.3,98.2c2.7,3.8,1.8,9.2-2,11.9c-3.8,2.7-9.2,1.8-11.9-2c-2.7-3.8-1.8-9.2,2-11.9
	C195.3,93.4,200.6,94.3,203.3,98.2L203.3,98.2z"/>
</svg>
